<mxfile host="app.diagrams.net" agent="Mozilla/5.0 (Windows NT 10.0; Win64; x64) AppleWebKit/537.36 (KHTML, like Gecko) Chrome/128.0.0.0 Safari/537.36 Edg/128.0.0.0" version="24.7.8">
  <diagram name="第 1 页" id="0Ec2PLDwrg9ha2cOhrA8">
    <mxGraphModel dx="1006" dy="711" grid="1" gridSize="10" guides="1" tooltips="1" connect="1" arrows="1" fold="1" page="1" pageScale="1" pageWidth="1169" pageHeight="827" math="0" shadow="0">
      <root>
        <mxCell id="0" />
        <mxCell id="1" parent="0" />
        <mxCell id="I_1CauUJUONfPGQjCN1W-1" value="&lt;font size=&quot;1&quot; face=&quot;宋体&quot;&gt;&lt;b style=&quot;font-size: 16px;&quot;&gt;多模态特征筛选&lt;/b&gt;&lt;/font&gt;" style="text;html=1;align=center;verticalAlign=middle;resizable=0;points=[];autosize=1;strokeColor=none;fillColor=none;" vertex="1" parent="1">
          <mxGeometry x="120" y="553" width="140" height="30" as="geometry" />
        </mxCell>
        <mxCell id="I_1CauUJUONfPGQjCN1W-2" value="&lt;font size=&quot;1&quot; face=&quot;宋体&quot;&gt;&lt;b style=&quot;font-size: 16px;&quot;&gt;相似病例分组&lt;/b&gt;&lt;/font&gt;" style="text;html=1;align=center;verticalAlign=middle;resizable=0;points=[];autosize=1;strokeColor=none;fillColor=none;" vertex="1" parent="1">
          <mxGeometry x="370" y="551" width="120" height="30" as="geometry" />
        </mxCell>
        <mxCell id="I_1CauUJUONfPGQjCN1W-3" value="&lt;font size=&quot;1&quot; face=&quot;宋体&quot;&gt;&lt;b style=&quot;font-size: 16px;&quot;&gt;多任务协同预警&lt;/b&gt;&lt;/font&gt;" style="text;html=1;align=center;verticalAlign=middle;resizable=0;points=[];autosize=1;strokeColor=none;fillColor=none;" vertex="1" parent="1">
          <mxGeometry x="610" y="551" width="140" height="30" as="geometry" />
        </mxCell>
        <mxCell id="I_1CauUJUONfPGQjCN1W-113" value="" style="group;fontFamily=Times New Roman;" vertex="1" connectable="0" parent="1">
          <mxGeometry x="164" y="299" width="20" height="80" as="geometry" />
        </mxCell>
        <mxCell id="I_1CauUJUONfPGQjCN1W-114" value="0" style="rounded=0;whiteSpace=wrap;html=1;fontFamily=Times New Roman;" vertex="1" parent="I_1CauUJUONfPGQjCN1W-113">
          <mxGeometry width="20" height="20" as="geometry" />
        </mxCell>
        <mxCell id="I_1CauUJUONfPGQjCN1W-115" value="3" style="rounded=0;whiteSpace=wrap;html=1;fontFamily=Times New Roman;" vertex="1" parent="I_1CauUJUONfPGQjCN1W-113">
          <mxGeometry y="20" width="20" height="20" as="geometry" />
        </mxCell>
        <mxCell id="I_1CauUJUONfPGQjCN1W-116" value="0" style="rounded=0;whiteSpace=wrap;html=1;fontFamily=Times New Roman;" vertex="1" parent="I_1CauUJUONfPGQjCN1W-113">
          <mxGeometry y="40" width="20" height="20" as="geometry" />
        </mxCell>
        <mxCell id="I_1CauUJUONfPGQjCN1W-117" value="2" style="rounded=0;whiteSpace=wrap;html=1;fontFamily=Times New Roman;" vertex="1" parent="I_1CauUJUONfPGQjCN1W-113">
          <mxGeometry y="60" width="20" height="20" as="geometry" />
        </mxCell>
        <mxCell id="I_1CauUJUONfPGQjCN1W-86" value="0" style="rounded=0;whiteSpace=wrap;html=1;fontFamily=Times New Roman;" vertex="1" parent="1">
          <mxGeometry x="104" y="299" width="20" height="20" as="geometry" />
        </mxCell>
        <mxCell id="I_1CauUJUONfPGQjCN1W-100" value="1" style="rounded=0;whiteSpace=wrap;html=1;fontFamily=Times New Roman;" vertex="1" parent="1">
          <mxGeometry x="104" y="319" width="20" height="20" as="geometry" />
        </mxCell>
        <mxCell id="I_1CauUJUONfPGQjCN1W-101" value="3" style="rounded=0;whiteSpace=wrap;html=1;fontFamily=Times New Roman;" vertex="1" parent="1">
          <mxGeometry x="104" y="339" width="20" height="20" as="geometry" />
        </mxCell>
        <mxCell id="I_1CauUJUONfPGQjCN1W-102" value="0" style="rounded=0;whiteSpace=wrap;html=1;fontFamily=Times New Roman;" vertex="1" parent="1">
          <mxGeometry x="104" y="359" width="20" height="20" as="geometry" />
        </mxCell>
        <mxCell id="I_1CauUJUONfPGQjCN1W-108" value="" style="group;fontFamily=Times New Roman;" vertex="1" connectable="0" parent="1">
          <mxGeometry x="130" y="299" width="20" height="80" as="geometry" />
        </mxCell>
        <mxCell id="I_1CauUJUONfPGQjCN1W-109" value="1" style="rounded=0;whiteSpace=wrap;html=1;fontFamily=Times New Roman;" vertex="1" parent="I_1CauUJUONfPGQjCN1W-108">
          <mxGeometry width="20" height="20" as="geometry" />
        </mxCell>
        <mxCell id="I_1CauUJUONfPGQjCN1W-110" value="0" style="rounded=0;whiteSpace=wrap;html=1;fontFamily=Times New Roman;" vertex="1" parent="I_1CauUJUONfPGQjCN1W-108">
          <mxGeometry y="20" width="20" height="20" as="geometry" />
        </mxCell>
        <mxCell id="I_1CauUJUONfPGQjCN1W-111" value="1" style="rounded=0;whiteSpace=wrap;html=1;fontFamily=Times New Roman;" vertex="1" parent="I_1CauUJUONfPGQjCN1W-108">
          <mxGeometry y="40" width="20" height="20" as="geometry" />
        </mxCell>
        <mxCell id="I_1CauUJUONfPGQjCN1W-112" value="2" style="rounded=0;whiteSpace=wrap;html=1;fontFamily=Times New Roman;" vertex="1" parent="I_1CauUJUONfPGQjCN1W-108">
          <mxGeometry y="60" width="20" height="20" as="geometry" />
        </mxCell>
        <mxCell id="I_1CauUJUONfPGQjCN1W-122" value="&lt;font style=&quot;font-size: 16px;&quot; face=&quot;Times New Roman&quot;&gt;t&lt;sub&gt;1&lt;/sub&gt;&lt;/font&gt;" style="text;html=1;align=center;verticalAlign=middle;resizable=0;points=[];autosize=1;strokeColor=none;fillColor=none;" vertex="1" parent="1">
          <mxGeometry x="99" y="268" width="30" height="40" as="geometry" />
        </mxCell>
        <mxCell id="I_1CauUJUONfPGQjCN1W-123" value="&lt;font style=&quot;font-size: 16px;&quot;&gt;&lt;font style=&quot;font-size: 16px;&quot; face=&quot;Times New Roman&quot;&gt;t&lt;/font&gt;&lt;font style=&quot;font-size: 16px;&quot; face=&quot;Times New Roman&quot;&gt;&lt;sub style=&quot;&quot;&gt;2&lt;/sub&gt;&lt;/font&gt;&lt;/font&gt;" style="text;html=1;align=center;verticalAlign=middle;resizable=0;points=[];autosize=1;strokeColor=none;fillColor=none;" vertex="1" parent="1">
          <mxGeometry x="125" y="268" width="30" height="40" as="geometry" />
        </mxCell>
        <mxCell id="I_1CauUJUONfPGQjCN1W-124" value="&lt;font style=&quot;font-size: 16px;&quot;&gt;&lt;font style=&quot;font-size: 16px;&quot; face=&quot;Times New Roman&quot;&gt;t&lt;/font&gt;&lt;font style=&quot;font-size: 16px;&quot; face=&quot;Times New Roman&quot;&gt;&lt;sub style=&quot;&quot;&gt;n&lt;/sub&gt;&lt;/font&gt;&lt;/font&gt;" style="text;html=1;align=center;verticalAlign=middle;resizable=0;points=[];autosize=1;strokeColor=none;fillColor=none;" vertex="1" parent="1">
          <mxGeometry x="159" y="268" width="30" height="40" as="geometry" />
        </mxCell>
        <mxCell id="I_1CauUJUONfPGQjCN1W-125" value="&lt;font face=&quot;Times New Roman&quot;&gt;&lt;span style=&quot;font-size: 16px;&quot;&gt;...&lt;/span&gt;&lt;/font&gt;" style="text;html=1;align=center;verticalAlign=middle;resizable=0;points=[];autosize=1;strokeColor=none;fillColor=none;" vertex="1" parent="1">
          <mxGeometry x="137" y="319" width="40" height="30" as="geometry" />
        </mxCell>
        <mxCell id="I_1CauUJUONfPGQjCN1W-19" value="" style="shape=note;whiteSpace=wrap;html=1;backgroundOutline=1;darkOpacity=0.05;" vertex="1" parent="1">
          <mxGeometry x="80" y="406" width="100" height="111.21951219512195" as="geometry" />
        </mxCell>
        <mxCell id="I_1CauUJUONfPGQjCN1W-18" value="&lt;p style=&quot;margin-top: 0pt; margin-bottom: 0pt; margin-left: 0in; direction: ltr; unicode-bidi: embed; line-height: 170%; font-size: 6px;&quot;&gt;&lt;font face=&quot;宋体&quot; style=&quot;font-size: 6px;&quot;&gt;现病史&lt;/font&gt;&lt;/p&gt;&lt;p style=&quot;margin-top: 0pt; margin-bottom: 0pt; margin-left: 0in; direction: ltr; unicode-bidi: embed; line-height: 170%; font-size: 6px;&quot;&gt;&lt;font style=&quot;font-family: Srst9OHECPt7wxaIHF3h; background-color: initial;&quot;&gt;主诉：&lt;/font&gt;&lt;span style=&quot;font-family: Srst9OHECPt7wxaIHF3h; background-color: initial;&quot;&gt;右侧&lt;u&gt;&lt;b&gt;&lt;i&gt;&lt;font color=&quot;#2d7600&quot;&gt;腰腹部疼痛&lt;/font&gt;&lt;/i&gt;&lt;/b&gt;&lt;/u&gt;&lt;/span&gt;&lt;/p&gt;&lt;p style=&quot;margin-top: 0pt; margin-bottom: 0pt; margin-left: 0in; direction: ltr; unicode-bidi: embed; line-height: 170%; font-size: 6px;&quot;&gt;&lt;span style=&quot;font-family: Srst9OHECPt7wxaIHF3h; background-color: initial;&quot;&gt;1天&lt;/span&gt;&lt;br&gt;&lt;/p&gt;&lt;p style=&quot;margin-top: 0pt; margin-bottom: 0pt; margin-left: 0in; direction: ltr; unicode-bidi: embed; line-height: 170%; font-size: 6px;&quot;&gt;&lt;font face=&quot;Srst9OHECPt7wxaIHF3h&quot; style=&quot;font-size: 6px;&quot;&gt;&lt;font style=&quot;font-size: 6px;&quot;&gt;现病史：&lt;/font&gt;&lt;span style=&quot;background-color: initial;&quot;&gt;&lt;font style=&quot;font-size: 6px;&quot;&gt;患者于1天前无明显&lt;/font&gt;&lt;/span&gt;&lt;/font&gt;&lt;/p&gt;&lt;p style=&quot;margin-top: 0pt; margin-bottom: 0pt; margin-left: 0in; direction: ltr; unicode-bidi: embed; line-height: 170%; font-size: 6px;&quot;&gt;&lt;span style=&quot;background-color: initial;&quot;&gt;&lt;font face=&quot;Srst9OHECPt7wxaIHF3h&quot; style=&quot;font-size: 6px;&quot;&gt;诱因出现右侧&lt;i style=&quot;&quot;&gt;&lt;u style=&quot;&quot;&gt;&lt;b style=&quot;&quot;&gt;&lt;font style=&quot;font-size: 6px;&quot; color=&quot;#2d7600&quot;&gt;腰腹部疼痛&lt;/font&gt;&lt;/b&gt;&lt;/u&gt;&lt;/i&gt;，&lt;/font&gt;&lt;/span&gt;&lt;span style=&quot;font-family: Srst9OHECPt7wxaIHF3h; background-color: initial;&quot;&gt;伴&lt;i&gt;&lt;b&gt;&lt;u&gt;&lt;font color=&quot;#b09500&quot;&gt;发热&lt;/font&gt;&lt;/u&gt;&lt;/b&gt;&lt;/i&gt;&lt;/span&gt;&lt;span style=&quot;font-family: Srst9OHECPt7wxaIHF3h; background-color: initial;&quot;&gt;&lt;font color=&quot;#b09500&quot;&gt;.&lt;/font&gt;..&lt;/span&gt;&lt;/p&gt;&lt;p style=&quot;margin-top: 0pt; margin-bottom: 0pt; margin-left: 0in; direction: ltr; unicode-bidi: embed; line-height: 170%; font-size: 6px;&quot;&gt;&lt;font face=&quot;Srst9OHECPt7wxaIHF3h&quot; style=&quot;font-size: 6px;&quot;&gt;&lt;font style=&quot;background-color: initial; font-size: 6px;&quot;&gt;体格检查：&lt;/font&gt;&lt;span style=&quot;background-color: initial;&quot;&gt;&lt;font style=&quot;font-size: 6px;&quot;&gt;&lt;i style=&quot;&quot;&gt;&lt;u style=&quot;&quot;&gt;&lt;b style=&quot;&quot;&gt;&lt;font style=&quot;font-size: 6px;&quot; color=&quot;#b09500&quot;&gt;T38.5℃&lt;/font&gt;&lt;/b&gt;&lt;/u&gt;&lt;/i&gt;,&lt;/font&gt;&lt;/span&gt;&lt;span style=&quot;background-color: initial;&quot;&gt;&lt;font style=&quot;font-size: 6px;&quot;&gt;右&lt;b style=&quot;&quot;&gt;&lt;i style=&quot;&quot;&gt;&lt;u style=&quot;&quot;&gt;&lt;font style=&quot;font-size: 6px;&quot; color=&quot;#006eaf&quot;&gt;肾区&lt;/font&gt;&lt;/u&gt;&lt;/i&gt;&lt;/b&gt;&lt;/font&gt;&lt;/span&gt;&lt;/font&gt;&lt;b style=&quot;font-family: Srst9OHECPt7wxaIHF3h; background-color: initial;&quot;&gt;&lt;i&gt;&lt;u&gt;&lt;font color=&quot;#006eaf&quot;&gt;叩击痛&lt;/font&gt;&lt;/u&gt;&lt;/i&gt;&lt;/b&gt;&lt;/p&gt;&lt;p style=&quot;margin-top: 0pt; margin-bottom: 0pt; margin-left: 0in; direction: ltr; unicode-bidi: embed; line-height: 170%; font-size: 6px;&quot;&gt;&lt;b style=&quot;font-family: Srst9OHECPt7wxaIHF3h; background-color: initial;&quot;&gt;&lt;i&gt;&lt;u&gt;&lt;font color=&quot;#006eaf&quot;&gt;（＋）&lt;/font&gt;&lt;/u&gt;&lt;/i&gt;&lt;/b&gt;&lt;span style=&quot;font-family: Srst9OHECPt7wxaIHF3h; background-color: initial;&quot;&gt;...&lt;/span&gt;&lt;/p&gt;&lt;p style=&quot;margin-top: 0pt; margin-bottom: 0pt; margin-left: 0in; direction: ltr; unicode-bidi: embed; line-height: 170%; font-size: 6px;&quot;&gt;&lt;font face=&quot;Srst9OHECPt7wxaIHF3h&quot; style=&quot;font-size: 6px;&quot;&gt;&lt;font style=&quot;font-size: 6px;&quot;&gt;辅助检查：&lt;/font&gt;&lt;span style=&quot;background-color: initial;&quot;&gt;&lt;font style=&quot;font-size: 6px;&quot;&gt;泌尿系&lt;i style=&quot;&quot;&gt;&lt;b style=&quot;&quot;&gt;&lt;font style=&quot;font-size: 6px;&quot; color=&quot;#f99b9c&quot;&gt;&lt;u style=&quot;&quot;&gt;彩超示右肾&lt;/u&gt;&lt;/font&gt;&lt;/b&gt;&lt;/i&gt;&lt;/font&gt;&lt;/span&gt;&lt;/font&gt;&lt;i style=&quot;color: rgb(249, 155, 156); font-family: Srst9OHECPt7wxaIHF3h; background-color: initial;&quot;&gt;&lt;b&gt;&lt;u&gt;多发&lt;/u&gt;&lt;/b&gt;&lt;/i&gt;&lt;/p&gt;&lt;p style=&quot;margin-top: 0pt; margin-bottom: 0pt; margin-left: 0in; direction: ltr; unicode-bidi: embed; line-height: 170%; font-size: 6px;&quot;&gt;&lt;i style=&quot;color: rgb(249, 155, 156); font-family: Srst9OHECPt7wxaIHF3h; background-color: initial;&quot;&gt;&lt;b&gt;&lt;u&gt;结石&lt;/u&gt;&lt;/b&gt;&lt;/i&gt;&lt;/p&gt;&lt;p style=&quot;margin-top: 0pt; margin-bottom: 0pt; margin-left: 0in; direction: ltr; unicode-bidi: embed; line-height: 170%; font-size: 6px;&quot;&gt;&lt;font face=&quot;Srst9OHECPt7wxaIHF3h&quot; style=&quot;font-size: 6px;&quot;&gt;&lt;font style=&quot;font-size: 6px;&quot;&gt;初步诊断：&lt;/font&gt;&lt;span style=&quot;background-color: initial;&quot;&gt;&lt;font style=&quot;font-size: 6px;&quot; color=&quot;#f99a9a&quot;&gt;&lt;u style=&quot;&quot;&gt;&lt;i style=&quot;&quot;&gt;&lt;b style=&quot;&quot;&gt;右肾&lt;/b&gt;&lt;/i&gt;&lt;b style=&quot;&quot;&gt;&lt;i style=&quot;&quot;&gt;多发结石&lt;/i&gt;&lt;/b&gt;&lt;/u&gt;&lt;/font&gt;&lt;/span&gt;&lt;/font&gt;&lt;/p&gt;" style="text;html=1;align=left;verticalAlign=middle;resizable=0;points=[];autosize=1;strokeColor=none;fillColor=none;fontSize=7;" vertex="1" parent="1">
          <mxGeometry x="83" y="401.780487804878" width="120" height="120" as="geometry" />
        </mxCell>
        <mxCell id="I_1CauUJUONfPGQjCN1W-227" value="" style="group;fillColor=#FFE6CC;strokeColor=#d79b00;" vertex="1" connectable="0" parent="1">
          <mxGeometry x="240" y="169" width="60" height="60" as="geometry" />
        </mxCell>
        <mxCell id="I_1CauUJUONfPGQjCN1W-149" value="" style="group;fillColor=#fafafa;strokeColor=#b85450;" vertex="1" connectable="0" parent="I_1CauUJUONfPGQjCN1W-227">
          <mxGeometry width="15" height="60" as="geometry" />
        </mxCell>
        <mxCell id="I_1CauUJUONfPGQjCN1W-150" value="" style="rounded=0;whiteSpace=wrap;html=1;fillColor=#fafafa;strokeColor=#b85450;" vertex="1" parent="I_1CauUJUONfPGQjCN1W-149">
          <mxGeometry y="15" width="15" height="15" as="geometry" />
        </mxCell>
        <mxCell id="I_1CauUJUONfPGQjCN1W-151" value="" style="rounded=0;whiteSpace=wrap;html=1;fillColor=#fafafa;strokeColor=#b85450;" vertex="1" parent="I_1CauUJUONfPGQjCN1W-149">
          <mxGeometry y="30" width="15" height="15" as="geometry" />
        </mxCell>
        <mxCell id="I_1CauUJUONfPGQjCN1W-152" value="" style="rounded=0;whiteSpace=wrap;html=1;fillColor=#fafafa;strokeColor=#b85450;" vertex="1" parent="I_1CauUJUONfPGQjCN1W-149">
          <mxGeometry y="45" width="15" height="15" as="geometry" />
        </mxCell>
        <mxCell id="I_1CauUJUONfPGQjCN1W-153" value="" style="rounded=0;whiteSpace=wrap;html=1;fillColor=#fafafa;strokeColor=#b85450;" vertex="1" parent="I_1CauUJUONfPGQjCN1W-149">
          <mxGeometry width="15" height="15" as="geometry" />
        </mxCell>
        <mxCell id="I_1CauUJUONfPGQjCN1W-154" value="" style="group;fillColor=#fafafa;strokeColor=#b85450;" vertex="1" connectable="0" parent="I_1CauUJUONfPGQjCN1W-227">
          <mxGeometry x="15" width="15" height="60" as="geometry" />
        </mxCell>
        <mxCell id="I_1CauUJUONfPGQjCN1W-155" value="" style="rounded=0;whiteSpace=wrap;html=1;fillColor=#fafafa;strokeColor=#b85450;" vertex="1" parent="I_1CauUJUONfPGQjCN1W-154">
          <mxGeometry y="15" width="15" height="15" as="geometry" />
        </mxCell>
        <mxCell id="I_1CauUJUONfPGQjCN1W-156" value="" style="rounded=0;whiteSpace=wrap;html=1;fillColor=#fafafa;strokeColor=#b85450;" vertex="1" parent="I_1CauUJUONfPGQjCN1W-154">
          <mxGeometry y="30" width="15" height="15" as="geometry" />
        </mxCell>
        <mxCell id="I_1CauUJUONfPGQjCN1W-157" value="" style="rounded=0;whiteSpace=wrap;html=1;fillColor=#fafafa;strokeColor=#b85450;" vertex="1" parent="I_1CauUJUONfPGQjCN1W-154">
          <mxGeometry y="45" width="15" height="15" as="geometry" />
        </mxCell>
        <mxCell id="I_1CauUJUONfPGQjCN1W-158" value="" style="rounded=0;whiteSpace=wrap;html=1;fillColor=#fafafa;strokeColor=#b85450;" vertex="1" parent="I_1CauUJUONfPGQjCN1W-154">
          <mxGeometry width="15" height="15" as="geometry" />
        </mxCell>
        <mxCell id="I_1CauUJUONfPGQjCN1W-159" value="" style="group;fillColor=#fafafa;strokeColor=#b85450;" vertex="1" connectable="0" parent="I_1CauUJUONfPGQjCN1W-227">
          <mxGeometry x="30" width="15" height="60" as="geometry" />
        </mxCell>
        <mxCell id="I_1CauUJUONfPGQjCN1W-160" value="" style="rounded=0;whiteSpace=wrap;html=1;fillColor=#fafafa;strokeColor=#b85450;" vertex="1" parent="I_1CauUJUONfPGQjCN1W-159">
          <mxGeometry y="15" width="15" height="15" as="geometry" />
        </mxCell>
        <mxCell id="I_1CauUJUONfPGQjCN1W-161" value="" style="rounded=0;whiteSpace=wrap;html=1;fillColor=#fafafa;strokeColor=#b85450;" vertex="1" parent="I_1CauUJUONfPGQjCN1W-159">
          <mxGeometry y="30" width="15" height="15" as="geometry" />
        </mxCell>
        <mxCell id="I_1CauUJUONfPGQjCN1W-162" value="" style="rounded=0;whiteSpace=wrap;html=1;fillColor=#fafafa;strokeColor=#b85450;" vertex="1" parent="I_1CauUJUONfPGQjCN1W-159">
          <mxGeometry y="45" width="15" height="15" as="geometry" />
        </mxCell>
        <mxCell id="I_1CauUJUONfPGQjCN1W-163" value="" style="rounded=0;whiteSpace=wrap;html=1;fillColor=#fafafa;strokeColor=#b85450;" vertex="1" parent="I_1CauUJUONfPGQjCN1W-159">
          <mxGeometry width="15" height="15" as="geometry" />
        </mxCell>
        <mxCell id="I_1CauUJUONfPGQjCN1W-164" value="" style="group;fillColor=#fafafa;strokeColor=#b85450;" vertex="1" connectable="0" parent="I_1CauUJUONfPGQjCN1W-227">
          <mxGeometry x="45" width="15" height="60" as="geometry" />
        </mxCell>
        <mxCell id="I_1CauUJUONfPGQjCN1W-165" value="" style="rounded=0;whiteSpace=wrap;html=1;fillColor=#fafafa;strokeColor=#b85450;" vertex="1" parent="I_1CauUJUONfPGQjCN1W-164">
          <mxGeometry y="15" width="15" height="15" as="geometry" />
        </mxCell>
        <mxCell id="I_1CauUJUONfPGQjCN1W-166" value="" style="rounded=0;whiteSpace=wrap;html=1;fillColor=#fafafa;strokeColor=#b85450;" vertex="1" parent="I_1CauUJUONfPGQjCN1W-164">
          <mxGeometry y="30" width="15" height="15" as="geometry" />
        </mxCell>
        <mxCell id="I_1CauUJUONfPGQjCN1W-167" value="" style="rounded=0;whiteSpace=wrap;html=1;fillColor=#fafafa;strokeColor=#b85450;" vertex="1" parent="I_1CauUJUONfPGQjCN1W-164">
          <mxGeometry y="45" width="15" height="15" as="geometry" />
        </mxCell>
        <mxCell id="I_1CauUJUONfPGQjCN1W-168" value="" style="rounded=0;whiteSpace=wrap;html=1;fillColor=#fafafa;strokeColor=#b85450;" vertex="1" parent="I_1CauUJUONfPGQjCN1W-164">
          <mxGeometry width="15" height="15" as="geometry" />
        </mxCell>
        <mxCell id="I_1CauUJUONfPGQjCN1W-228" value="" style="group" vertex="1" connectable="0" parent="1">
          <mxGeometry x="240" y="309" width="60" height="60" as="geometry" />
        </mxCell>
        <mxCell id="I_1CauUJUONfPGQjCN1W-229" value="" style="group;fillColor=#fafafa;strokeColor=#b85450;" vertex="1" connectable="0" parent="I_1CauUJUONfPGQjCN1W-228">
          <mxGeometry width="15" height="60" as="geometry" />
        </mxCell>
        <mxCell id="I_1CauUJUONfPGQjCN1W-230" value="" style="rounded=0;whiteSpace=wrap;html=1;fillColor=#fafafa;strokeColor=#b85450;" vertex="1" parent="I_1CauUJUONfPGQjCN1W-229">
          <mxGeometry y="15" width="15" height="15" as="geometry" />
        </mxCell>
        <mxCell id="I_1CauUJUONfPGQjCN1W-231" value="" style="rounded=0;whiteSpace=wrap;html=1;fillColor=#fafafa;strokeColor=#b85450;" vertex="1" parent="I_1CauUJUONfPGQjCN1W-229">
          <mxGeometry y="30" width="15" height="15" as="geometry" />
        </mxCell>
        <mxCell id="I_1CauUJUONfPGQjCN1W-232" value="" style="rounded=0;whiteSpace=wrap;html=1;fillColor=#fafafa;strokeColor=#b85450;" vertex="1" parent="I_1CauUJUONfPGQjCN1W-229">
          <mxGeometry y="45" width="15" height="15" as="geometry" />
        </mxCell>
        <mxCell id="I_1CauUJUONfPGQjCN1W-233" value="" style="rounded=0;whiteSpace=wrap;html=1;fillColor=#fafafa;strokeColor=#b85450;" vertex="1" parent="I_1CauUJUONfPGQjCN1W-229">
          <mxGeometry width="15" height="15" as="geometry" />
        </mxCell>
        <mxCell id="I_1CauUJUONfPGQjCN1W-234" value="" style="group;fillColor=#fafafa;strokeColor=#b85450;" vertex="1" connectable="0" parent="I_1CauUJUONfPGQjCN1W-228">
          <mxGeometry x="15" width="15" height="60" as="geometry" />
        </mxCell>
        <mxCell id="I_1CauUJUONfPGQjCN1W-235" value="" style="rounded=0;whiteSpace=wrap;html=1;fillColor=#fafafa;strokeColor=#b85450;" vertex="1" parent="I_1CauUJUONfPGQjCN1W-234">
          <mxGeometry y="15" width="15" height="15" as="geometry" />
        </mxCell>
        <mxCell id="I_1CauUJUONfPGQjCN1W-236" value="" style="rounded=0;whiteSpace=wrap;html=1;fillColor=#fafafa;strokeColor=#b85450;" vertex="1" parent="I_1CauUJUONfPGQjCN1W-234">
          <mxGeometry y="30" width="15" height="15" as="geometry" />
        </mxCell>
        <mxCell id="I_1CauUJUONfPGQjCN1W-237" value="" style="rounded=0;whiteSpace=wrap;html=1;fillColor=#fafafa;strokeColor=#b85450;" vertex="1" parent="I_1CauUJUONfPGQjCN1W-234">
          <mxGeometry y="45" width="15" height="15" as="geometry" />
        </mxCell>
        <mxCell id="I_1CauUJUONfPGQjCN1W-238" value="" style="rounded=0;whiteSpace=wrap;html=1;fillColor=#fafafa;strokeColor=#b85450;" vertex="1" parent="I_1CauUJUONfPGQjCN1W-234">
          <mxGeometry width="15" height="15" as="geometry" />
        </mxCell>
        <mxCell id="I_1CauUJUONfPGQjCN1W-239" value="" style="group;fillColor=#fafafa;strokeColor=#b85450;" vertex="1" connectable="0" parent="I_1CauUJUONfPGQjCN1W-228">
          <mxGeometry x="30" width="15" height="60" as="geometry" />
        </mxCell>
        <mxCell id="I_1CauUJUONfPGQjCN1W-240" value="" style="rounded=0;whiteSpace=wrap;html=1;fillColor=#fafafa;strokeColor=#b85450;" vertex="1" parent="I_1CauUJUONfPGQjCN1W-239">
          <mxGeometry y="15" width="15" height="15" as="geometry" />
        </mxCell>
        <mxCell id="I_1CauUJUONfPGQjCN1W-241" value="" style="rounded=0;whiteSpace=wrap;html=1;fillColor=#fafafa;strokeColor=#b85450;" vertex="1" parent="I_1CauUJUONfPGQjCN1W-239">
          <mxGeometry y="30" width="15" height="15" as="geometry" />
        </mxCell>
        <mxCell id="I_1CauUJUONfPGQjCN1W-242" value="" style="rounded=0;whiteSpace=wrap;html=1;fillColor=#fafafa;strokeColor=#b85450;" vertex="1" parent="I_1CauUJUONfPGQjCN1W-239">
          <mxGeometry y="45" width="15" height="15" as="geometry" />
        </mxCell>
        <mxCell id="I_1CauUJUONfPGQjCN1W-243" value="" style="rounded=0;whiteSpace=wrap;html=1;fillColor=#fafafa;strokeColor=#b85450;" vertex="1" parent="I_1CauUJUONfPGQjCN1W-239">
          <mxGeometry width="15" height="15" as="geometry" />
        </mxCell>
        <mxCell id="I_1CauUJUONfPGQjCN1W-244" value="" style="group;fillColor=#fafafa;strokeColor=#b85450;" vertex="1" connectable="0" parent="I_1CauUJUONfPGQjCN1W-228">
          <mxGeometry x="45" width="15" height="60" as="geometry" />
        </mxCell>
        <mxCell id="I_1CauUJUONfPGQjCN1W-245" value="" style="rounded=0;whiteSpace=wrap;html=1;fillColor=#fafafa;strokeColor=#b85450;" vertex="1" parent="I_1CauUJUONfPGQjCN1W-244">
          <mxGeometry y="15" width="15" height="15" as="geometry" />
        </mxCell>
        <mxCell id="I_1CauUJUONfPGQjCN1W-246" value="" style="rounded=0;whiteSpace=wrap;html=1;fillColor=#fafafa;strokeColor=#b85450;" vertex="1" parent="I_1CauUJUONfPGQjCN1W-244">
          <mxGeometry y="30" width="15" height="15" as="geometry" />
        </mxCell>
        <mxCell id="I_1CauUJUONfPGQjCN1W-247" value="" style="rounded=0;whiteSpace=wrap;html=1;fillColor=#fafafa;strokeColor=#b85450;" vertex="1" parent="I_1CauUJUONfPGQjCN1W-244">
          <mxGeometry y="45" width="15" height="15" as="geometry" />
        </mxCell>
        <mxCell id="I_1CauUJUONfPGQjCN1W-248" value="" style="rounded=0;whiteSpace=wrap;html=1;fillColor=#fafafa;strokeColor=#b85450;" vertex="1" parent="I_1CauUJUONfPGQjCN1W-244">
          <mxGeometry width="15" height="15" as="geometry" />
        </mxCell>
        <mxCell id="I_1CauUJUONfPGQjCN1W-249" value="" style="group" vertex="1" connectable="0" parent="1">
          <mxGeometry x="240" y="431" width="60" height="60" as="geometry" />
        </mxCell>
        <mxCell id="I_1CauUJUONfPGQjCN1W-250" value="" style="group;fillColor=#fafafa;strokeColor=#b85450;" vertex="1" connectable="0" parent="I_1CauUJUONfPGQjCN1W-249">
          <mxGeometry width="15" height="60" as="geometry" />
        </mxCell>
        <mxCell id="I_1CauUJUONfPGQjCN1W-251" value="" style="rounded=0;whiteSpace=wrap;html=1;fillColor=#fafafa;strokeColor=#b85450;" vertex="1" parent="I_1CauUJUONfPGQjCN1W-250">
          <mxGeometry y="15" width="15" height="15" as="geometry" />
        </mxCell>
        <mxCell id="I_1CauUJUONfPGQjCN1W-252" value="" style="rounded=0;whiteSpace=wrap;html=1;fillColor=#fafafa;strokeColor=#b85450;" vertex="1" parent="I_1CauUJUONfPGQjCN1W-250">
          <mxGeometry y="30" width="15" height="15" as="geometry" />
        </mxCell>
        <mxCell id="I_1CauUJUONfPGQjCN1W-253" value="" style="rounded=0;whiteSpace=wrap;html=1;fillColor=#fafafa;strokeColor=#b85450;" vertex="1" parent="I_1CauUJUONfPGQjCN1W-250">
          <mxGeometry y="45" width="15" height="15" as="geometry" />
        </mxCell>
        <mxCell id="I_1CauUJUONfPGQjCN1W-254" value="" style="rounded=0;whiteSpace=wrap;html=1;fillColor=#fafafa;strokeColor=#b85450;" vertex="1" parent="I_1CauUJUONfPGQjCN1W-250">
          <mxGeometry width="15" height="15" as="geometry" />
        </mxCell>
        <mxCell id="I_1CauUJUONfPGQjCN1W-255" value="" style="group;fillColor=#fafafa;strokeColor=#b85450;" vertex="1" connectable="0" parent="I_1CauUJUONfPGQjCN1W-249">
          <mxGeometry x="15" width="15" height="60" as="geometry" />
        </mxCell>
        <mxCell id="I_1CauUJUONfPGQjCN1W-256" value="" style="rounded=0;whiteSpace=wrap;html=1;fillColor=#fafafa;strokeColor=#b85450;" vertex="1" parent="I_1CauUJUONfPGQjCN1W-255">
          <mxGeometry y="15" width="15" height="15" as="geometry" />
        </mxCell>
        <mxCell id="I_1CauUJUONfPGQjCN1W-257" value="" style="rounded=0;whiteSpace=wrap;html=1;fillColor=#fafafa;strokeColor=#b85450;" vertex="1" parent="I_1CauUJUONfPGQjCN1W-255">
          <mxGeometry y="30" width="15" height="15" as="geometry" />
        </mxCell>
        <mxCell id="I_1CauUJUONfPGQjCN1W-258" value="" style="rounded=0;whiteSpace=wrap;html=1;fillColor=#fafafa;strokeColor=#b85450;" vertex="1" parent="I_1CauUJUONfPGQjCN1W-255">
          <mxGeometry y="45" width="15" height="15" as="geometry" />
        </mxCell>
        <mxCell id="I_1CauUJUONfPGQjCN1W-259" value="" style="rounded=0;whiteSpace=wrap;html=1;fillColor=#fafafa;strokeColor=#b85450;" vertex="1" parent="I_1CauUJUONfPGQjCN1W-255">
          <mxGeometry width="15" height="15" as="geometry" />
        </mxCell>
        <mxCell id="I_1CauUJUONfPGQjCN1W-260" value="" style="group;fillColor=#fafafa;strokeColor=#b85450;" vertex="1" connectable="0" parent="I_1CauUJUONfPGQjCN1W-249">
          <mxGeometry x="30" width="15" height="60" as="geometry" />
        </mxCell>
        <mxCell id="I_1CauUJUONfPGQjCN1W-261" value="" style="rounded=0;whiteSpace=wrap;html=1;fillColor=#fafafa;strokeColor=#b85450;" vertex="1" parent="I_1CauUJUONfPGQjCN1W-260">
          <mxGeometry y="15" width="15" height="15" as="geometry" />
        </mxCell>
        <mxCell id="I_1CauUJUONfPGQjCN1W-262" value="" style="rounded=0;whiteSpace=wrap;html=1;fillColor=#fafafa;strokeColor=#b85450;" vertex="1" parent="I_1CauUJUONfPGQjCN1W-260">
          <mxGeometry y="30" width="15" height="15" as="geometry" />
        </mxCell>
        <mxCell id="I_1CauUJUONfPGQjCN1W-263" value="" style="rounded=0;whiteSpace=wrap;html=1;fillColor=#fafafa;strokeColor=#b85450;" vertex="1" parent="I_1CauUJUONfPGQjCN1W-260">
          <mxGeometry y="45" width="15" height="15" as="geometry" />
        </mxCell>
        <mxCell id="I_1CauUJUONfPGQjCN1W-264" value="" style="rounded=0;whiteSpace=wrap;html=1;fillColor=#fafafa;strokeColor=#b85450;" vertex="1" parent="I_1CauUJUONfPGQjCN1W-260">
          <mxGeometry width="15" height="15" as="geometry" />
        </mxCell>
        <mxCell id="I_1CauUJUONfPGQjCN1W-265" value="" style="group;fillColor=#fafafa;strokeColor=#b85450;" vertex="1" connectable="0" parent="I_1CauUJUONfPGQjCN1W-249">
          <mxGeometry x="45" width="15" height="60" as="geometry" />
        </mxCell>
        <mxCell id="I_1CauUJUONfPGQjCN1W-266" value="" style="rounded=0;whiteSpace=wrap;html=1;fillColor=#fafafa;strokeColor=#b85450;" vertex="1" parent="I_1CauUJUONfPGQjCN1W-265">
          <mxGeometry y="15" width="15" height="15" as="geometry" />
        </mxCell>
        <mxCell id="I_1CauUJUONfPGQjCN1W-267" value="" style="rounded=0;whiteSpace=wrap;html=1;fillColor=#fafafa;strokeColor=#b85450;" vertex="1" parent="I_1CauUJUONfPGQjCN1W-265">
          <mxGeometry y="30" width="15" height="15" as="geometry" />
        </mxCell>
        <mxCell id="I_1CauUJUONfPGQjCN1W-268" value="" style="rounded=0;whiteSpace=wrap;html=1;fillColor=#fafafa;strokeColor=#b85450;" vertex="1" parent="I_1CauUJUONfPGQjCN1W-265">
          <mxGeometry y="45" width="15" height="15" as="geometry" />
        </mxCell>
        <mxCell id="I_1CauUJUONfPGQjCN1W-269" value="" style="rounded=0;whiteSpace=wrap;html=1;fillColor=#fafafa;strokeColor=#b85450;" vertex="1" parent="I_1CauUJUONfPGQjCN1W-265">
          <mxGeometry width="15" height="15" as="geometry" />
        </mxCell>
        <mxCell id="I_1CauUJUONfPGQjCN1W-312" value="&lt;font style=&quot;font-size: 14px;&quot; face=&quot;Times New Roman&quot;&gt;Patient&amp;nbsp;&lt;/font&gt;&lt;div style=&quot;font-size: 14px;&quot;&gt;&lt;font style=&quot;font-size: 14px;&quot; face=&quot;Times New Roman&quot;&gt;(1~n)&lt;/font&gt;&lt;/div&gt;" style="text;html=1;align=center;verticalAlign=middle;resizable=0;points=[];autosize=1;strokeColor=none;fillColor=none;" vertex="1" parent="1">
          <mxGeometry x="33" y="170" width="70" height="50" as="geometry" />
        </mxCell>
        <mxCell id="I_1CauUJUONfPGQjCN1W-314" value="" style="shape=curlyBracket;whiteSpace=wrap;html=1;rounded=1;labelPosition=left;verticalLabelPosition=middle;align=right;verticalAlign=middle;rotation=0;" vertex="1" parent="1">
          <mxGeometry x="87" y="170" width="10" height="60" as="geometry" />
        </mxCell>
        <mxCell id="I_1CauUJUONfPGQjCN1W-319" value="" style="shape=curlyBracket;whiteSpace=wrap;html=1;rounded=1;labelPosition=left;verticalLabelPosition=middle;align=right;verticalAlign=middle;rotation=90;" vertex="1" parent="1">
          <mxGeometry x="135" y="123" width="10" height="60" as="geometry" />
        </mxCell>
        <mxCell id="I_1CauUJUONfPGQjCN1W-320" value="&lt;font style=&quot;font-size: 14px;&quot; face=&quot;Times New Roman&quot;&gt;Variable&amp;nbsp;&lt;/font&gt;&lt;span style=&quot;font-size: 14px; font-family: &amp;quot;Times New Roman&amp;quot;; background-color: initial;&quot;&gt;(1~m)&lt;/span&gt;" style="text;html=1;align=center;verticalAlign=middle;resizable=0;points=[];autosize=1;strokeColor=none;fillColor=none;" vertex="1" parent="1">
          <mxGeometry x="84" y="124" width="110" height="30" as="geometry" />
        </mxCell>
        <mxCell id="I_1CauUJUONfPGQjCN1W-322" value="&lt;span style=&quot;font-family: &amp;quot;Times New Roman&amp;quot;; font-size: 14px;&quot;&gt;Variable&lt;/span&gt;&lt;font style=&quot;font-size: 14px;&quot; face=&quot;Times New Roman&quot;&gt;&amp;nbsp;&lt;/font&gt;&lt;div style=&quot;font-size: 14px;&quot;&gt;&lt;font style=&quot;font-size: 14px;&quot; face=&quot;Times New Roman&quot;&gt;(1~n)&lt;/font&gt;&lt;/div&gt;" style="text;html=1;align=center;verticalAlign=middle;resizable=0;points=[];autosize=1;strokeColor=none;fillColor=none;" vertex="1" parent="1">
          <mxGeometry x="35" y="309" width="70" height="50" as="geometry" />
        </mxCell>
        <mxCell id="I_1CauUJUONfPGQjCN1W-323" value="" style="shape=curlyBracket;whiteSpace=wrap;html=1;rounded=1;labelPosition=left;verticalLabelPosition=middle;align=right;verticalAlign=middle;rotation=0;" vertex="1" parent="1">
          <mxGeometry x="91" y="309" width="10" height="60" as="geometry" />
        </mxCell>
        <mxCell id="I_1CauUJUONfPGQjCN1W-286" value="" style="group" vertex="1" connectable="0" parent="1">
          <mxGeometry x="120" y="160" width="20" height="100" as="geometry" />
        </mxCell>
        <mxCell id="I_1CauUJUONfPGQjCN1W-287" value="2" style="rounded=0;whiteSpace=wrap;html=1;fontFamily=Times New Roman;" vertex="1" parent="I_1CauUJUONfPGQjCN1W-286">
          <mxGeometry width="20" height="20" as="geometry" />
        </mxCell>
        <mxCell id="I_1CauUJUONfPGQjCN1W-288" value="3" style="rounded=0;whiteSpace=wrap;html=1;fontFamily=Times New Roman;" vertex="1" parent="I_1CauUJUONfPGQjCN1W-286">
          <mxGeometry y="20" width="20" height="20" as="geometry" />
        </mxCell>
        <mxCell id="I_1CauUJUONfPGQjCN1W-289" value="0" style="rounded=0;whiteSpace=wrap;html=1;fontFamily=Times New Roman;" vertex="1" parent="I_1CauUJUONfPGQjCN1W-286">
          <mxGeometry y="40" width="20" height="20" as="geometry" />
        </mxCell>
        <mxCell id="I_1CauUJUONfPGQjCN1W-290" value="5" style="rounded=0;whiteSpace=wrap;html=1;fontFamily=Times New Roman;" vertex="1" parent="I_1CauUJUONfPGQjCN1W-286">
          <mxGeometry y="60" width="20" height="20" as="geometry" />
        </mxCell>
        <mxCell id="I_1CauUJUONfPGQjCN1W-292" value="" style="group" vertex="1" connectable="0" parent="1">
          <mxGeometry x="140" y="160" width="20" height="120" as="geometry" />
        </mxCell>
        <mxCell id="I_1CauUJUONfPGQjCN1W-293" value="1" style="rounded=0;whiteSpace=wrap;html=1;fontFamily=Times New Roman;" vertex="1" parent="I_1CauUJUONfPGQjCN1W-292">
          <mxGeometry width="20" height="20" as="geometry" />
        </mxCell>
        <mxCell id="I_1CauUJUONfPGQjCN1W-294" value="5" style="rounded=0;whiteSpace=wrap;html=1;fontFamily=Times New Roman;" vertex="1" parent="I_1CauUJUONfPGQjCN1W-292">
          <mxGeometry y="20" width="20" height="20" as="geometry" />
        </mxCell>
        <mxCell id="I_1CauUJUONfPGQjCN1W-295" value="3" style="rounded=0;whiteSpace=wrap;html=1;fontFamily=Times New Roman;" vertex="1" parent="I_1CauUJUONfPGQjCN1W-292">
          <mxGeometry y="40" width="20" height="20" as="geometry" />
        </mxCell>
        <mxCell id="I_1CauUJUONfPGQjCN1W-296" value="1" style="rounded=0;whiteSpace=wrap;html=1;fontFamily=Times New Roman;" vertex="1" parent="I_1CauUJUONfPGQjCN1W-292">
          <mxGeometry y="60" width="20" height="20" as="geometry" />
        </mxCell>
        <mxCell id="I_1CauUJUONfPGQjCN1W-298" value="" style="group" vertex="1" connectable="0" parent="1">
          <mxGeometry x="160" y="160" width="20" height="100" as="geometry" />
        </mxCell>
        <mxCell id="I_1CauUJUONfPGQjCN1W-299" value="3" style="rounded=0;whiteSpace=wrap;html=1;fontFamily=Times New Roman;" vertex="1" parent="I_1CauUJUONfPGQjCN1W-298">
          <mxGeometry width="20" height="20" as="geometry" />
        </mxCell>
        <mxCell id="I_1CauUJUONfPGQjCN1W-300" value="0" style="rounded=0;whiteSpace=wrap;html=1;fontFamily=Times New Roman;" vertex="1" parent="I_1CauUJUONfPGQjCN1W-298">
          <mxGeometry y="20" width="20" height="20" as="geometry" />
        </mxCell>
        <mxCell id="I_1CauUJUONfPGQjCN1W-301" value="2" style="rounded=0;whiteSpace=wrap;html=1;fontFamily=Times New Roman;" vertex="1" parent="I_1CauUJUONfPGQjCN1W-298">
          <mxGeometry y="40" width="20" height="20" as="geometry" />
        </mxCell>
        <mxCell id="I_1CauUJUONfPGQjCN1W-302" value="3" style="rounded=0;whiteSpace=wrap;html=1;fontFamily=Times New Roman;" vertex="1" parent="I_1CauUJUONfPGQjCN1W-298">
          <mxGeometry y="60" width="20" height="20" as="geometry" />
        </mxCell>
        <mxCell id="I_1CauUJUONfPGQjCN1W-275" value="0" style="rounded=0;whiteSpace=wrap;html=1;fontFamily=Times New Roman;" vertex="1" parent="1">
          <mxGeometry x="100" y="160" width="20" height="20" as="geometry" />
        </mxCell>
        <mxCell id="I_1CauUJUONfPGQjCN1W-276" value="1" style="rounded=0;whiteSpace=wrap;html=1;fontFamily=Times New Roman;" vertex="1" parent="1">
          <mxGeometry x="100" y="180" width="20" height="20" as="geometry" />
        </mxCell>
        <mxCell id="I_1CauUJUONfPGQjCN1W-277" value="3" style="rounded=0;whiteSpace=wrap;html=1;fontFamily=Times New Roman;" vertex="1" parent="1">
          <mxGeometry x="100" y="200" width="20" height="20" as="geometry" />
        </mxCell>
        <mxCell id="I_1CauUJUONfPGQjCN1W-278" value="1" style="rounded=0;whiteSpace=wrap;html=1;fontFamily=Times New Roman;" vertex="1" parent="1">
          <mxGeometry x="100" y="220" width="20" height="20" as="geometry" />
        </mxCell>
        <mxCell id="I_1CauUJUONfPGQjCN1W-325" value="" style="endArrow=classic;html=1;rounded=0;entryX=0;entryY=0.25;entryDx=0;entryDy=0;" edge="1" parent="1">
          <mxGeometry width="50" height="50" relative="1" as="geometry">
            <mxPoint x="189" y="200" as="sourcePoint" />
            <mxPoint x="229" y="199.75" as="targetPoint" />
          </mxGeometry>
        </mxCell>
        <mxCell id="I_1CauUJUONfPGQjCN1W-326" value="&lt;font style=&quot;font-size: 13px;&quot; face=&quot;Times New Roman&quot;&gt;Sigmoid&lt;/font&gt;" style="edgeLabel;html=1;align=center;verticalAlign=middle;resizable=0;points=[];" vertex="1" connectable="0" parent="I_1CauUJUONfPGQjCN1W-325">
          <mxGeometry x="-0.2222" y="9" relative="1" as="geometry">
            <mxPoint x="3" y="-5" as="offset" />
          </mxGeometry>
        </mxCell>
        <mxCell id="I_1CauUJUONfPGQjCN1W-328" value="" style="endArrow=classic;html=1;rounded=0;entryX=0;entryY=0.25;entryDx=0;entryDy=0;" edge="1" parent="1">
          <mxGeometry width="50" height="50" relative="1" as="geometry">
            <mxPoint x="189" y="339.25" as="sourcePoint" />
            <mxPoint x="229" y="339" as="targetPoint" />
          </mxGeometry>
        </mxCell>
        <mxCell id="I_1CauUJUONfPGQjCN1W-329" value="&lt;font face=&quot;Times New Roman&quot;&gt;&lt;span style=&quot;font-size: 13px;&quot;&gt;Shapelet&lt;/span&gt;&lt;/font&gt;" style="edgeLabel;html=1;align=center;verticalAlign=middle;resizable=0;points=[];" vertex="1" connectable="0" parent="I_1CauUJUONfPGQjCN1W-328">
          <mxGeometry x="-0.2222" y="9" relative="1" as="geometry">
            <mxPoint x="6" y="-5" as="offset" />
          </mxGeometry>
        </mxCell>
        <mxCell id="I_1CauUJUONfPGQjCN1W-330" value="" style="endArrow=classic;html=1;rounded=0;entryX=0;entryY=0.25;entryDx=0;entryDy=0;" edge="1" parent="1">
          <mxGeometry width="50" height="50" relative="1" as="geometry">
            <mxPoint x="189" y="461.53" as="sourcePoint" />
            <mxPoint x="229" y="461.28" as="targetPoint" />
          </mxGeometry>
        </mxCell>
        <mxCell id="I_1CauUJUONfPGQjCN1W-331" value="&lt;font style=&quot;font-size: 13px;&quot; face=&quot;Times New Roman&quot;&gt;LDA&lt;/font&gt;" style="edgeLabel;html=1;align=center;verticalAlign=middle;resizable=0;points=[];" vertex="1" connectable="0" parent="I_1CauUJUONfPGQjCN1W-330">
          <mxGeometry x="-0.2222" y="9" relative="1" as="geometry">
            <mxPoint x="3" y="-5" as="offset" />
          </mxGeometry>
        </mxCell>
      </root>
    </mxGraphModel>
  </diagram>
</mxfile>
